<svg width="66" height="66" viewBox="0 0 66 66" fill="none" xmlns="http://www.w3.org/2000/svg">
<path fill-rule="evenodd" clip-rule="evenodd" d="M33 66C51.2254 66 66 51.2254 66 33C66 14.7746 51.2254 0 33 0C14.7746 0 0 14.7746 0 33C0 51.2254 14.7746 66 33 66ZM29.7001 18.5C29.7001 17.3954 30.5955 16.5 31.7001 16.5H34.3001C35.4047 16.5 36.3001 17.3954 36.3001 18.5V29.7H47.5C48.6046 29.7 49.5 30.5954 49.5 31.7V34.3C49.5 35.4046 48.6046 36.3 47.5 36.3H36.3001V47.5C36.3001 48.6046 35.4047 49.5 34.3001 49.5H31.7001C30.5955 49.5 29.7001 48.6046 29.7001 47.5V36.3H18.5C17.3954 36.3 16.5 35.4046 16.5 34.3V31.7C16.5 30.5954 17.3954 29.7 18.5 29.7H29.7001V18.5Z" fill="#838383"/>
</svg>
