<svg width="23" height="21" viewBox="0 0 23 21" fill="none" xmlns="http://www.w3.org/2000/svg">
<path fill-rule="evenodd" clip-rule="evenodd" d="M2.3 0C1.0235 0 0 0.983684 0 2.21053V17.6842C0 18.9111 1.0235 19.8947 2.3 19.8947H18.4C19.6765 19.8947 20.7 18.9111 20.7 17.6842V2.21053C20.7 0.983684 19.6765 0 18.4 0H2.3ZM2.3 2.21053H18.4V17.6842H2.3V2.21053ZM4.6 4.42105V6.63158H16.1V4.42105H4.6ZM4.6 8.84211V11.0526H16.1V8.84211H4.6ZM4.6 13.2632V15.4737H12.65V13.2632H4.6Z" fill="#9A999E"/>
<mask id="mask0" mask-type="alpha" maskUnits="userSpaceOnUse" x="0" y="0" width="21" height="20">
<path fill-rule="evenodd" clip-rule="evenodd" d="M2.3 0C1.0235 0 0 0.983684 0 2.21053V17.6842C0 18.9111 1.0235 19.8947 2.3 19.8947H18.4C19.6765 19.8947 20.7 18.9111 20.7 17.6842V2.21053C20.7 0.983684 19.6765 0 18.4 0H2.3ZM2.3 2.21053H18.4V17.6842H2.3V2.21053ZM4.6 4.42105V6.63158H16.1V4.42105H4.6ZM4.6 8.84211V11.0526H16.1V8.84211H4.6ZM4.6 13.2632V15.4737H12.65V13.2632H4.6Z" fill="white"/>
</mask>
<g mask="url(#mask0)">
</g>
<ellipse cx="18.175" cy="14.9736" rx="4.14" ry="3.97895" fill="white"/>
<path fill-rule="evenodd" clip-rule="evenodd" d="M18 10C15.25 10 13 12.25 13 15C13 17.75 15.25 20 18 20C20.75 20 23 17.75 23 15C23 12.25 20.75 10 18 10ZM18 19C15.795 19 14 17.205 14 15C14 12.795 15.795 11 18 11C20.205 11 22 12.795 22 15C22 17.205 20.205 19 18 19ZM20.295 12.79L17 16.085L15.705 14.795L15 15.5L17 17.5L21 13.5L20.295 12.79Z" fill="#9A999E"/>
<mask id="mask1" mask-type="alpha" maskUnits="userSpaceOnUse" x="13" y="10" width="10" height="10">
<path fill-rule="evenodd" clip-rule="evenodd" d="M18 10C15.25 10 13 12.25 13 15C13 17.75 15.25 20 18 20C20.75 20 23 17.75 23 15C23 12.25 20.75 10 18 10ZM18 19C15.795 19 14 17.205 14 15C14 12.795 15.795 11 18 11C20.205 11 22 12.795 22 15C22 17.205 20.205 19 18 19ZM20.295 12.79L17 16.085L15.705 14.795L15 15.5L17 17.5L21 13.5L20.295 12.79Z" fill="white"/>
</mask>
<g mask="url(#mask1)">
</g>
</svg>
