<svg width="72" height="95" viewBox="0 0 72 95" fill="none" xmlns="http://www.w3.org/2000/svg">
<path d="M36 90.9789C47.9834 90.9789 57.6979 87.0173 57.6979 82.1303C57.6979 77.2434 47.9834 73.2817 36 73.2817C24.0165 73.2817 14.302 77.2434 14.302 82.1303C14.302 87.0173 24.0165 90.9789 36 90.9789Z" fill="#E76112"/>
<path d="M65.5144 95.0001L69.4819 91.058C68.5469 88.679 67.3844 86.4136 65.9893 84.3115C65.366 83.3767 64.708 82.4666 64.0006 81.5912C64.6239 80.8196 65.2027 80.0183 65.7617 79.1973C66.1525 78.6235 66.5285 78.0399 66.8847 77.4414C68.1611 75.3146 69.2148 73.0394 70.036 70.6553L65.9101 66.5303C64.8515 70.6702 62.9617 74.4787 60.4189 77.758C53.9975 71.8276 45.4193 68.1971 35.9901 68.1971C26.5857 68.1971 18.0272 71.8028 11.6108 77.7085C11.6059 77.7035 11.6009 77.6937 11.596 77.6887C11.6009 77.6937 11.6059 77.7035 11.6108 77.7085C10.3246 78.9005 8.97403 80.0925 7.90546 81.4873C7.90546 81.4923 7.90546 81.4923 7.90546 81.4972C8.69699 82.4864 9.55779 83.4114 10.4433 84.3066C10.7995 84.6677 11.1508 85.0337 11.5218 85.3799C17.4484 90.8701 25.2203 94.3917 33.8035 94.9061H38.1718C46.7847 94.3917 54.5763 90.8503 60.5079 85.3354C62.6896 88.1794 64.426 91.4982 65.5144 95.0001ZM53.4731 84.3115C48.5112 87.7194 42.5104 89.7226 36.0346 89.7226C29.5589 89.7226 23.5531 87.7194 18.5961 84.3115C17.3495 83.4559 16.1671 82.5161 15.0639 81.4923C15.9494 80.6712 16.8844 79.9095 17.859 79.1973C22.9595 75.4679 29.2373 73.2619 36.0346 73.2619C42.8369 73.2619 49.1148 75.4728 54.2103 79.1973C55.1848 79.9095 56.1198 80.6712 57.0054 81.4923C55.9022 82.5161 54.7198 83.4559 53.4731 84.3115Z" fill="#1E120D"/>
<path d="M52.7212 14.225C51.43 6.1678 44.4595 0 36.0346 0C27.6097 0 20.6393 6.1678 19.3481 14.225H1.7859C0.796482 14.225 0 15.0263 0 16.0106V59.3138V59.5067C0.0296826 61.5099 0.217672 63.4685 0.559022 65.3777C1.26151 69.2901 2.60712 72.975 4.46723 76.3334L8.35069 72.4507C7.25739 70.2299 6.41638 67.8607 5.88209 65.3728C5.46159 63.4141 5.14992 61.3862 5.12024 59.3039V21.1298C5.12024 20.1406 5.92167 19.3442 6.90614 19.3442H65.0988C66.0882 19.3442 66.8847 20.1455 66.8847 21.1298V59.3187C66.8798 59.5364 66.8649 59.7491 66.86 59.9617L71.5251 64.6259C71.7972 62.8898 71.9753 61.1241 71.9901 59.3187H72V16.0155C72 15.0263 71.1986 14.23 70.2141 14.23H52.7212V14.225ZM24.1369 14.225C25.3638 8.7843 30.2168 4.71365 36.0346 4.71365C41.8475 4.71365 46.7055 8.7843 47.9324 14.225H24.1369Z" fill="#1E120D"/>
</svg>
