<svg width="162" height="214" viewBox="0 0 162 214" fill="none" xmlns="http://www.w3.org/2000/svg">
<path d="M80.9998 204.942C107.963 204.942 129.82 196.018 129.82 185.009C129.82 174.001 107.963 165.076 80.9998 165.076C54.0371 165.076 32.1794 174.001 32.1794 185.009C32.1794 196.018 54.0371 204.942 80.9998 204.942Z" fill="#E76112"/>
<path d="M42.0308 88.3543L40.4947 93.5352H31.2894L41.0735 66.6278H50.6684L60.4525 93.5352H51.2361L49.7223 88.3543H42.0308ZM45.871 75.0844L43.9453 81.8029H47.7855L45.871 75.0844Z" fill="#1E120D"/>
<path d="M64.0591 93.5241V66.6278H72.6856V85.658H84.0281V93.5352H64.0591V93.5241Z" fill="#1E120D"/>
<path d="M104.976 66.6278V74.505H97.8748V93.5352H89.2371V74.505H82.1356V66.6278H104.976Z" fill="#1E120D"/>
<path d="M113.792 88.3543L112.256 93.5352H103.051L112.835 66.6278H122.43L132.214 93.5352H122.997L121.483 88.3543H113.792ZM117.632 75.0844L115.706 81.8029H119.547L117.632 75.0844Z" fill="#1E120D"/>
<path d="M59.3837 101.357H65.3276V132.698H58.6268V111.808L48.5644 124.632L38.5242 111.886V132.687H31.8011V101.357H37.8453L48.5644 115.017L59.3837 101.357Z" fill="#1E120D"/>
<path d="M79.6085 125.311L76.9259 132.698H69.7687L82.0796 101.357H89.2145L101.525 132.698H94.3681L91.6856 125.311H79.6085ZM85.6637 109.2L81.8458 119.495H89.4705L85.6637 109.2Z" fill="#1E120D"/>
<path d="M105.978 101.357H119.847C122.941 101.357 125.512 102.348 127.538 104.343C129.564 106.326 130.588 108.766 130.588 111.652C130.588 112.9 130.388 114.081 129.998 115.172C129.609 116.264 129.141 117.145 128.607 117.813C128.073 118.482 127.538 119.061 126.982 119.54C126.425 120.019 125.958 120.353 125.568 120.521L125 120.821L131.701 132.687H124.544L118.522 121.713H112.712V132.687H105.989V101.357H105.978ZM122.663 108.61C121.85 107.808 120.837 107.407 119.613 107.407H112.69V115.685H119.613C120.837 115.685 121.85 115.295 122.663 114.515C123.475 113.735 123.876 112.777 123.876 111.641C123.876 110.426 123.475 109.412 122.663 108.61Z" fill="#1E120D"/>
<path d="M147.408 214L156.335 205.12C154.231 199.761 151.615 194.658 148.476 189.923C147.074 187.817 145.593 185.767 144.001 183.795C145.404 182.057 146.706 180.252 147.964 178.402C148.843 177.11 149.689 175.795 150.491 174.447C153.363 169.656 155.733 164.531 157.581 159.16L148.298 149.868C145.916 159.194 141.664 167.773 135.943 175.16C121.495 161.801 102.194 153.623 80.978 153.623C59.818 153.623 40.5614 161.745 26.1246 175.048C26.1135 175.037 26.1023 175.015 26.0912 175.004C26.1023 175.015 26.1135 175.037 26.1246 175.048C23.2305 177.733 20.1918 180.419 17.7875 183.561C17.7875 183.572 17.7875 183.572 17.7875 183.583C19.5685 185.811 21.5052 187.895 23.4977 189.911C24.2991 190.725 25.0894 191.549 25.9242 192.329C39.2591 204.697 56.7459 212.63 76.0581 213.788H85.8867C105.266 212.63 122.797 204.652 136.143 192.229C141.052 198.635 144.959 206.112 147.408 214ZM120.315 189.923C109.15 197.599 95.6486 202.112 81.0781 202.112C66.5077 202.112 52.9947 197.599 41.8415 189.923C39.0365 187.995 36.3762 185.878 33.894 183.572C35.8864 181.722 37.9902 180.006 40.183 178.402C51.659 170.001 65.7842 165.032 81.0781 165.032C96.3832 165.032 110.508 170.012 121.973 178.402C124.166 180.006 126.27 181.722 128.262 183.572C125.78 185.878 123.12 187.995 120.315 189.923Z" fill="#1E120D"/>
<path d="M118.623 32.0437C115.717 13.8938 100.034 0 81.0779 0C62.1219 0 46.4384 13.8938 43.5332 32.0437H4.01828C1.79208 32.0437 0 33.8487 0 36.0659V133.612V134.047C0.0667858 138.559 0.489762 142.971 1.2578 147.272C2.8384 156.085 5.86602 164.386 10.0513 171.951L18.7891 163.205C16.3291 158.202 14.4369 152.865 13.2347 147.261C12.2886 142.849 11.5873 138.281 11.5205 133.59V47.5976C11.5205 45.3693 13.3238 43.5755 15.5388 43.5755H146.472C148.699 43.5755 150.491 45.3804 150.491 47.5976V133.623C150.479 134.113 150.446 134.593 150.435 135.072L160.931 145.578C161.544 141.668 161.944 137.69 161.978 133.623H162V36.0771C162 33.8487 160.197 32.0549 157.982 32.0549H118.623V32.0437ZM54.308 32.0437C57.0684 19.7878 67.9879 10.6181 81.0779 10.6181C94.1568 10.6181 105.087 19.7878 107.848 32.0437H54.308Z" fill="#1E120D"/>
</svg>
