<svg width="70" height="93" viewBox="0 0 70 93" fill="none" xmlns="http://www.w3.org/2000/svg">
<path d="M35 88.1387C46.7435 88.1387 56.2636 84.2301 56.2636 79.4086C56.2636 74.5871 46.7435 70.6785 35 70.6785C23.2564 70.6785 13.7364 74.5871 13.7364 79.4086C13.7364 84.2301 23.2564 88.1387 35 88.1387Z" fill="#009CDE"/>
<path d="M63.6945 93L67.5519 89.1409C66.6428 86.8119 65.5126 84.5943 64.1562 82.5364C63.5502 81.6213 62.9105 80.7304 62.2228 79.8734C62.8288 79.118 63.3915 78.3336 63.935 77.5298C64.315 76.9682 64.6805 76.3968 65.0268 75.8109C66.2677 73.7289 67.2922 71.5016 68.0906 69.1677L64.0793 65.1295C63.05 69.1823 61.2127 72.9106 58.7405 76.1208C52.4976 70.3153 44.1576 66.7613 34.9904 66.7613C25.8472 66.7613 17.5264 70.2911 11.2883 76.0724C11.2835 76.0676 11.2787 76.0579 11.2739 76.053C11.2787 76.0579 11.2835 76.0676 11.2883 76.0724C10.0378 77.2393 8.72474 78.4062 7.68585 79.7717C7.68585 79.7765 7.68585 79.7765 7.68585 79.7814C8.4554 80.7498 9.29228 81.6552 10.1532 82.5316C10.4995 82.8851 10.841 83.2434 11.2017 83.5823C16.9637 88.9569 24.5197 92.4044 32.8645 92.908H37.1114C45.4851 92.4044 53.0603 88.9375 58.8271 83.5387C60.9482 86.3229 62.6364 89.5718 63.6945 93ZM51.9878 82.5364C47.1637 85.8726 41.3295 87.8336 35.0337 87.8336C28.7378 87.8336 22.8989 85.8726 18.0796 82.5364C16.8675 81.6988 15.718 80.7788 14.6455 79.7765C15.5064 78.9727 16.4154 78.2271 17.3629 77.5298C22.3217 73.879 28.4252 71.7195 35.0337 71.7195C41.647 71.7195 47.7504 73.8838 52.7044 77.5298C53.6519 78.2271 54.5609 78.9727 55.4219 79.7765C54.3493 80.7788 53.1998 81.6988 51.9878 82.5364Z" fill="#1E120D"/>
<path d="M51.2567 13.9255C50.0014 6.03795 43.2245 0 35.0337 0C26.8428 0 20.066 6.03795 18.8106 13.9255H1.73629C0.774358 13.9255 0 14.7099 0 15.6735V58.0651V58.2539C0.028858 60.2149 0.211626 62.1323 0.543493 64.0014C1.22647 67.8314 2.5347 71.4386 4.34314 74.7263L8.11873 70.9254C7.05579 68.7513 6.23815 66.432 5.7187 63.9965C5.30988 62.0791 5.00687 60.0939 4.97801 58.0554V20.685C4.97801 19.7166 5.75718 18.937 6.71431 18.937H63.2905C64.2524 18.937 65.0268 19.7214 65.0268 20.685V58.0699C65.022 58.283 65.0076 58.4912 65.0027 58.6994L69.5383 63.2654C69.8028 61.5658 69.976 59.8372 69.9904 58.0699H70V15.6783C70 14.7099 69.2208 13.9304 68.2637 13.9304H51.2567V13.9255ZM23.4664 13.9255C24.6592 8.59936 29.3775 4.61441 35.0337 4.61441C40.685 4.61441 45.4081 8.59936 46.6009 13.9255H23.4664Z" fill="#1E120D"/>
</svg>
