<svg height="512pt" viewBox="0 0 512 512" width="512pt" xmlns="http://www.w3.org/2000/svg"><path d="m188.5 256c0 16.5 5.398438 31.800781 14.398438 44.097656l17.703124-105.597656c-19.5 13.5-32.101562 36-32.101562 61.5zm0 0"/><path d="m253.300781 181.597656-23.699219 141.300782c8.699219 4.5 18.597657 7.199218 29.097657 7.800781l24.601562-147c-6.300781-1.800781-12.902343-2.699219-19.800781-2.699219-3.300781 0-6.898438.300781-10.199219.597656zm0 0"/><path d="m256 0c-140.699219 0-256 115.300781-256 256s115.300781 256 256 256 256-115.300781 256-256-115.300781-256-256-256zm159.550781 415.550781c-42.851562 42.851563-99.515625 66.449219-159.550781 66.449219s-116.699219-23.597656-159.550781-66.449219c-42.851563-42.851562-66.449219-99.515625-66.449219-159.550781s23.597656-116.699219 66.449219-159.550781c42.851562-42.851563 99.515625-66.449219 159.550781-66.449219s116.699219 23.597656 159.550781 66.449219c42.851563 42.851562 66.449219 99.515625 66.449219 159.550781s-23.597656 116.699219-66.449219 159.550781zm0 0"/><path d="m394.335938 117.664062c-37.183594-37.183593-86.3125-57.664062-138.335938-57.664062s-101.152344 20.480469-138.335938 57.664062c-37.1875 37.183594-57.664062 86.3125-57.664062 138.335938s20.480469 101.152344 57.664062 138.335938c37.183594 37.183593 86.3125 57.664062 138.335938 57.664062s101.152344-20.480469 138.335938-57.664062c37.183593-37.183594 57.664062-86.3125 57.664062-138.335938s-20.480469-101.152344-57.664062-138.335938zm-65.734376 175.835938 25.800782 15c-15 26.101562-40.800782 44.398438-69.902344 50.101562l-5.699219 34.796876-29.699219-4.796876 4.796876-28.203124c-10.5-.898438-20.398438-3.296876-29.398438-7.199219l-6.601562 40.199219-29.699219-4.796876 8.703125-51.601562c-23.402344-19.199219-38.402344-48.300781-38.402344-81 0-45 28.199219-83.402344 68.101562-98.101562l6.597657-39.300782 29.699219 4.800782-4.5 27.902343c1.800781-.300781 3.300781-.300781 5.101562-.300781 8.402344 0 16.800781.898438 24.601562 3l6-35.402344 29.699219 4.800782-6.898437 42.300781c15.296875 9 28.496094 21.898437 37.5 37.800781l-25.800782 15c-4.5-7.800781-10.5-14.699219-17.402343-20.101562l-21 127.5c15.902343-6 29.402343-17.097657 38.402343-32.398438zm0 0"/></svg>