<svg width="22" height="22" viewBox="0 0 22 22" fill="none" xmlns="http://www.w3.org/2000/svg">
<path fill-rule="evenodd" clip-rule="evenodd" d="M11 1.22217C13.7001 1.22217 15.8889 3.411 15.8889 6.11106C15.8889 8.81112 13.7001 10.9999 11 10.9999C8.29994 10.9999 6.11111 8.81112 6.11111 6.11106C6.11111 3.411 8.29994 1.22217 11 1.22217ZM11 3.66661C9.64997 3.66661 8.55555 4.76103 8.55555 6.11106C8.55555 7.46109 9.64997 8.5555 11 8.5555C12.35 8.5555 13.4444 7.46109 13.4444 6.11106C13.4444 4.76103 12.35 3.66661 11 3.66661ZM11 12.2222C14.2633 12.2222 20.7778 13.8477 20.7778 17.1111V20.7777H1.22222V17.1111C1.22222 13.8477 7.73667 12.2222 11 12.2222ZM11 14.5444C7.37 14.5444 3.54444 16.3288 3.54444 17.1111V18.4555H18.4556V17.1111C18.4556 16.3288 14.63 14.5444 11 14.5444Z" fill="#9A999E"/>
<mask id="mask0" mask-type="alpha" maskUnits="userSpaceOnUse" x="1" y="1" width="20" height="20">
<path fill-rule="evenodd" clip-rule="evenodd" d="M11 1.22217C13.7001 1.22217 15.8889 3.411 15.8889 6.11106C15.8889 8.81112 13.7001 10.9999 11 10.9999C8.29994 10.9999 6.11111 8.81112 6.11111 6.11106C6.11111 3.411 8.29994 1.22217 11 1.22217ZM11 3.66661C9.64997 3.66661 8.55555 4.76103 8.55555 6.11106C8.55555 7.46109 9.64997 8.5555 11 8.5555C12.35 8.5555 13.4444 7.46109 13.4444 6.11106C13.4444 4.76103 12.35 3.66661 11 3.66661ZM11 12.2222C14.2633 12.2222 20.7778 13.8477 20.7778 17.1111V20.7777H1.22222V17.1111C1.22222 13.8477 7.73667 12.2222 11 12.2222ZM11 14.5444C7.37 14.5444 3.54444 16.3288 3.54444 17.1111V18.4555H18.4556V17.1111C18.4556 16.3288 14.63 14.5444 11 14.5444Z" fill="white"/>
</mask>
<g mask="url(#mask0)">
</g>
</svg>
